<svg width="81" height="81" viewBox="0 0 81 81" fill="none" xmlns="http://www.w3.org/2000/svg">
<g clip-path="url(#clip0_693_7355)">
<path d="M68.08 81H11.93C5.74 78.97 1.57 75 0 68.5V12C0.7 10.45 1.31 8.85 2.11 7.36C4.34 3.23 8.19 1.33 12.42 0H68.08C68.53 0.2 68.96 0.45 69.42 0.6C76.78 3 80.5 8.07 80.5 15.79C80.5 32.34 80.48 48.9 80.52 65.45C80.52 69.65 79.43 73.56 76.32 76.26C73.97 78.3 70.85 79.45 68.08 80.99V81ZM33.14 63.27C32.38 62.56 31.16 61.97 30.93 61.11C30.07 57.91 29.2 54.64 28.95 51.35C28.62 47.13 28.9 42.86 28.88 38.61C28.88 36.97 28.02 36.02 26.35 36C24.48 35.98 24.88 37.43 24.87 38.51C24.84 43.26 24.73 48.01 24.91 52.75C25.01 55.36 25.22 58.1 26.08 60.53C28.48 67.35 33.88 71.01 40.65 71.82C46.89 72.56 53.31 72.77 59.49 70.81C59.65 68.82 59.51 69 58.09 67.91C56.12 66.42 53.92 64.91 52.66 62.88C50.89 60.02 51.12 56.71 51.29 53.21C51.59 47.07 52.98 40.96 51.86 34.7C51.18 30.93 49.92 27.6 47.72 24.58C43.24 18.45 36.75 15.39 29.85 13.03C28.32 12.51 26.7 12.24 25.1 11.84C24.56 14.3 25.37 15.28 27.21 16.03C30.76 17.47 34.28 19.06 37.66 20.87C45.28 24.94 48.71 31.55 48.51 40.12C48.48 41.59 47.85 43.04 47.82 44.5C47.71 49.91 47.7 55.33 47.74 60.74C47.74 61.58 48.09 62.46 48.46 63.24C49.17 64.75 50 66.21 50.84 67.79C47.66 68.12 45.46 66.88 44.77 64.31C42.95 57.54 43.54 50.7 44.38 43.87C45 38.82 44.58 34.03 41.81 29.54C38.91 24.84 34.15 23.02 29.48 21.04C28.09 20.45 26.52 20.25 25.02 19.87C24.53 22.32 25.15 23.6 27.19 24.23C28.53 24.64 29.76 25.44 31.06 26C37.12 28.59 41.24 32.13 40.66 40.07C40.47 42.62 39.92 45.16 39.91 47.71C39.86 54.08 38.77 60.57 41.68 66.86C40.86 66.78 40.14 66.6 39.59 66.19C37.56 64.68 36.82 62.47 36.79 60.07C36.72 53.49 36.77 46.91 36.77 40.33C36.77 34.51 32.78 29.35 27.1 27.95C26.48 27.8 25.29 27.79 25.21 28.03C24.96 28.72 24.88 29.7 25.21 30.32C25.57 31.01 26.38 31.54 27.1 31.96C29.54 33.38 32.6 34.49 32.73 37.77C33.06 46.03 33.02 54.31 33.14 63.23V63.27Z" fill="black"/>
<path d="M33.1401 63.27C33.0201 54.35 33.0601 46.07 32.7301 37.81C32.6001 34.53 29.5401 33.41 27.1001 32C26.3801 31.58 25.5701 31.05 25.2101 30.36C24.8901 29.74 24.9701 28.76 25.2101 28.07C25.2901 27.84 26.4801 27.84 27.1001 27.99C32.7801 29.39 36.7801 34.55 36.7701 40.37C36.7701 46.95 36.7201 53.53 36.7901 60.11C36.8101 62.51 37.5601 64.72 39.5901 66.23C40.1401 66.64 40.8601 66.82 41.6801 66.9C38.7601 60.61 39.8601 54.12 39.9101 47.75C39.9301 45.2 40.4801 42.66 40.6601 40.11C41.2401 32.17 37.1201 28.63 31.0601 26.04C29.7501 25.48 28.5301 24.69 27.1901 24.27C25.1501 23.64 24.5301 22.36 25.0201 19.91C26.5201 20.29 28.0801 20.48 29.4801 21.08C34.1401 23.07 38.9001 24.89 41.8101 29.58C44.5801 34.06 45.0001 38.85 44.3801 43.91C43.5401 50.74 42.9501 57.58 44.7701 64.35C45.4601 66.92 47.6601 68.15 50.8401 67.83C50.0001 66.25 49.1701 64.8 48.4601 63.28C48.1001 62.5 47.7501 61.62 47.7401 60.78C47.7001 55.37 47.7101 49.95 47.8201 44.54C47.8501 43.08 48.4801 41.62 48.5101 40.16C48.7101 31.59 45.2801 24.98 37.6601 20.91C34.2801 19.1 30.7601 17.51 27.2101 16.07C25.3701 15.32 24.5601 14.34 25.1001 11.88C26.7001 12.27 28.3201 12.54 29.8501 13.07C36.7501 15.43 43.2401 18.48 47.7201 24.62C49.9201 27.63 51.1901 30.96 51.8601 34.74C52.9801 41 51.5901 47.12 51.2901 53.25C51.1201 56.74 50.8801 60.06 52.6601 62.92C53.9201 64.95 56.1201 66.46 58.0901 67.95C59.5101 69.03 59.6501 68.85 59.4901 70.85C53.3101 72.8 46.8901 72.6 40.6501 71.86C33.8701 71.05 28.4701 67.39 26.0801 60.57C25.2201 58.14 25.0101 55.4 24.9101 52.79C24.7301 48.05 24.8401 43.3 24.8701 38.55C24.8701 37.47 24.4801 36.02 26.3501 36.04C28.0201 36.06 28.8701 37 28.8801 38.65C28.9001 42.9 28.6301 47.17 28.9501 51.39C29.2101 54.68 30.0701 57.94 30.9301 61.15C31.1601 62.01 32.3801 62.6 33.1401 63.31V63.27Z" fill="white"/>
</g>
<defs>
<clipPath id="clip0_693_7355">
<rect width="80.52" height="81" fill="white"/>
</clipPath>
</defs>
</svg>
